<svg version="1.1" viewBox="0.0 0.0 997.4409448818898 1152.0" fill="none" stroke="none" stroke-linecap="square" stroke-miterlimit="10" xmlns:xlink="http://www.w3.org/1999/xlink" xmlns="http://www.w3.org/2000/svg"><clipPath id="g3a68f25a8cd_0_0.0"><path d="m0 0l997.4409 0l0 1152.0l-997.4409 0l0 -1152.0z" clip-rule="nonzero"/></clipPath><g clip-path="url(#g3a68f25a8cd_0_0.0)"><path fill="#000000" fill-opacity="0.0" d="m0 0l997.4409 0l0 1152.0l-997.4409 0z" fill-rule="evenodd"/><path fill="#333333" d="m498.72177 0l498.9919 287.0003l0 577.9994l-498.9919 287.0003l-498.99188 -287.0003l0 -577.9994z" fill-rule="evenodd"/><path fill="#b6d7a8" d="m498.72046 57.6063l448.99194 258.2423l0 520.30273l-448.99194 258.2423l-448.9919 -258.2423l0 -520.30273z" fill-rule="evenodd"/><path fill="#000000" d="m219.7105 670.752l251.1811 -276.47244l24.97638 22.677185l-251.1811 276.47244z" fill-rule="evenodd"/><path fill="#000000" d="m486.63297 369.56683l290.01578 235.40161l-21.259888 26.204712l-290.01572 -235.40158z" fill-rule="evenodd"/><path fill="#000000" d="m105.46719 663.6903l0 0c0 -79.81604 64.70366 -144.51971 144.51968 -144.51971l0 0c38.32901 0 75.088135 15.226135 102.19086 42.328857c27.102692 27.102661 42.328827 63.861816 42.328827 102.19086l0 0c0 79.81598 -64.703674 144.51965 -144.51968 144.51965l0 0c-79.816025 0 -144.51968 -64.703674 -144.51968 -144.51965z" fill-rule="evenodd"/><path fill="#b6d7a8" d="m249.68443 683.94965c5.1108246 -0.9539795 10.18779 -1.0202026 15.230881 -0.19854736c5.0692444 0.7835083 9.105194 2.6247559 12.107819 5.5237427l2.3759766 12.729065c-1.7485962 3.8190918 -4.836548 7.0566406 -9.263794 9.712524c-4.3950806 2.6499023 -9.148041 4.4518433 -14.258881 5.4058228c-6.1394196 1.1459961 -11.724243 0.80804443 -16.754486 -1.013977c-5.030243 -1.8219604 -8.079361 -5.59375 -9.147354 -11.315369c-1.0680084 -5.7216187 0.41511536 -10.3394165 4.449356 -13.853394c4.0342407 -3.513916 9.121063 -5.843872 15.260483 -6.989868zm-11.818207 -87.90619c-11.057388 2.0639648 -21.999695 5.90271 -32.826935 11.516235c-10.801102 5.5753784 -20.108398 13.183777 -27.92189 22.825195l21.651794 25.646606c4.803543 -5.986023 10.517181 -10.927795 17.1409 -14.825317c6.6558685 -3.9035034 13.535675 -6.5182495 20.639389 -7.8442383c9.28949 -1.7339478 16.79242 -1.1884766 22.508835 1.6363525c5.748535 2.8188477 9.210785 7.378418 10.38678 13.67865l3.2130127 17.213135c-5.335388 -4.52594 -12.223724 -7.4813232 -20.66504 -8.86615c-8.441315 -1.3848267 -17.38707 -1.1952515 -26.837265 0.5687256c-5.560837 1.0379639 -11.103241 2.8875122 -16.627228 5.548523c-5.523987 2.6610718 -10.331589 6.2195435 -14.422836 10.675537c-4.065094 4.4178467 -7.0814667 9.820801 -9.049103 16.208862c-1.9676361 6.3880615 -2.1384583 13.937561 -0.5124512 22.64862c1.5120087 8.100281 4.346817 14.822693 8.504456 20.167175c4.1576385 5.3445435 8.959015 9.504456 14.404114 12.479736c5.477249 2.9692993 11.298859 4.8431396 17.464844 5.621521c6.171982 0.81048584 12.038391 0.69677734 17.599228 -0.34124756c9.2573395 -1.7279663 17.536667 -4.953186 24.837967 -9.67572c7.2953186 -4.7546997 12.71109 -10.223022 16.247345 -16.404907l2.6549988 14.223755l45.611694 -8.513916l-16.695038 -89.440735c-2.0700073 -11.089661 -5.6753845 -19.980103 -10.816193 -26.671265c-5.1086426 -6.6970825 -11.137695 -11.642395 -18.087097 -14.835876c-6.923279 -3.2315674 -14.600006 -4.975403 -23.030182 -5.2313232c-8.430176 -0.2559204 -16.888214 0.40808105 -25.3741 1.9920654z" fill-rule="evenodd"/><path fill="#000000" d="m329.68503 392.70255l0 0c0 -79.81604 64.703674 -144.5197 144.51968 -144.5197l0 0c38.32904 0 75.088135 15.2261505 102.19086 42.328842c27.102722 27.102692 42.328857 63.861847 42.328857 102.19086l0 0c0 79.81601 -64.703674 144.51968 -144.51971 144.51968l0 0c-79.81601 0 -144.51968 -64.703674 -144.51968 -144.51968z" fill-rule="evenodd"/><path fill="#000000" d="m609.73486 595.8898l0 0c0 -79.81604 64.703674 -144.51968 144.51971 -144.51968l0 0c38.32898 0 75.088135 15.226135 102.190796 42.328827c27.102722 27.102722 42.328857 63.861816 42.328857 102.19086l0 0c0 79.81604 -64.703674 144.51965 -144.51965 144.51965l0 0c-79.81604 0 -144.51971 -64.70361 -144.51971 -144.51965z" fill-rule="evenodd"/><path fill="#b6d7a8" d="m472.5124 381.77255c4.5152283 0 9.162415 1.040863 13.941528 3.1225586c4.779114 2.0816956 8.5173645 4.9110413 11.214783 8.488068l0 40.021393c-2.6974182 3.6063232 -6.435669 6.4943237 -11.214783 8.664001c-4.779114 2.1403198 -9.4263 3.2105103 -13.941528 3.2105103c-8.268158 0 -15.114319 -2.873352 -20.538483 -8.619995c-5.394806 -5.776001 -8.092224 -13.531067 -8.092224 -23.265198c0 -9.734161 2.6974182 -17.430603 8.092224 -23.089294c5.424164 -5.688019 12.270325 -8.532043 20.538483 -8.532043zm25.156311 -83.20935l0 65.13376c-5.2189026 -6.508972 -11.170807 -11.24411 -17.855713 -14.205414c-6.6555786 -2.9612732 -13.589691 -4.441925 -20.802338 -4.441925c-8.092224 0 -15.700714 1.583252 -22.825409 4.7497864c-7.1246643 3.137207 -13.252502 7.637787 -18.383453 13.5017395c-5.130951 5.8346252 -9.191711 12.988647 -12.182343 21.462036c-2.9612732 8.473389 -4.441925 18.016937 -4.441925 28.630707c0 11.170807 1.4806519 20.99292 4.441925 29.466309c2.990631 8.473389 7.0953674 15.642059 12.314301 21.506012c5.24823 5.8346252 11.376038 10.247223 18.383453 13.237854c7.0367126 2.9613037 14.601227 4.441925 22.69345 4.441925c7.3885803 0 14.322693 -1.4806213 20.802338 -4.441925c6.508972 -2.990631 12.460876 -7.637787 17.855713 -13.941528l0 15.128967l41.34082 0l0 -180.2283z" fill-rule="evenodd"/><path fill="#b6d7a8" d="m785.40955 479.80862c-6.5237427 -0.7825928 -12.302612 0.7308655 -17.336548 4.540344c-5.0306396 3.7817688 -7.923279 8.817963 -8.6779175 15.108551c-0.7579346 6.3182983 0.8531494 11.965027 4.833252 16.940186c3.9834595 4.9474487 9.237122 7.8125 15.760864 8.595093c6.5237427 0.7825928 12.305969 -0.7585449 17.346558 -4.623474c5.0438843 -3.8926392 7.944824 -8.998077 8.70282 -15.316376c0.7546387 -6.2905884 -0.8648071 -11.868042 -4.8582153 -16.73236c-3.9901123 -4.892029 -9.24707 -7.7293396 -15.770813 -8.511963zm-27.127136 53.712006l-14.675415 122.333984c-0.77789307 6.484558 -2.7722778 11.080322 -5.9830933 13.7872925c-3.1854248 2.7381592 -7.149109 3.822815 -11.891052 3.2539673c-3.9085083 -0.46887207 -6.946411 -1.269043 -9.11377 -2.4004517c-2.1994019 -1.1071777 -4.421814 -2.7511597 -6.6673584 -4.932068l-13.806702 27.606873c2.2854004 1.8483887 4.4266357 3.4404907 6.423645 4.776367c1.9649658 1.3601685 4.156067 2.53656 6.573242 3.529358c2.3884888 0.9892578 5.157776 1.8415527 8.307922 2.5567627c3.121399 0.711792 6.880615 1.3314209 11.27771 1.8588867c8.478027 1.0170288 16.002502 0.6265869 22.573425 -1.1713257c6.570984 -1.7979126 12.153503 -4.7123413 16.747559 -8.743286c4.6228027 -4.027466 8.269287 -9.029419 10.939514 -15.005859c2.6989136 -5.9730225 4.4987793 -12.714539 5.399719 -20.224426l14.675354 -122.33392z" fill-rule="evenodd"/></g></svg>